<svg width="280" height="85" viewBox="0 0 280 85" fill="none" xmlns="http://www.w3.org/2000/svg">
<path d="M42.2908 0C18.9351 0 0 18.9351 0 42.2908C0 65.6466 18.9351 84.5816 42.2908 84.5816C65.6466 84.5816 84.5816 65.6466 84.5816 42.2908C84.5816 18.9351 65.6466 0 42.2908 0ZM42.2908 78.0671C22.5321 78.0671 6.51449 62.0496 6.51449 42.2908C6.51449 22.5321 22.5321 6.51449 42.2908 6.51449C62.0496 6.51449 78.0671 22.5321 78.0671 42.2908C78.0671 62.0496 62.0496 78.0671 42.2908 78.0671Z" fill="#003594"/>
<path d="M173.244 0.457055H168.819C168.819 0.457055 168.825 18.9773 168.829 27.5342C168.829 28.5456 168.764 29.5471 168.523 30.5327C168.199 31.8621 167.472 32.905 166.165 33.3653C162.992 34.4813 159.787 34.4813 156.612 33.3712C155.305 32.9149 154.572 31.872 154.224 30.5544C153.942 29.4838 153.886 28.3876 153.886 27.2834C153.888 18.9694 153.904 0.457055 153.904 0.457055H149.466C149.466 0.457055 149.468 18.7857 149.462 27.1056C149.462 28.0676 149.434 29.0295 149.268 29.9816C148.922 31.9707 147.775 33.2448 145.811 33.7149C143.253 34.3272 140.676 34.3174 138.118 33.7149C136.364 33.3021 135.208 32.2216 134.791 30.4359C134.687 29.9915 134.633 29.5332 134.598 29.0769C134.55 28.4843 134.527 27.8878 134.527 27.2932C134.523 18.5862 134.534 0.455078 134.534 0.455078H130.066C130.066 0.455078 130.078 18.9931 130.088 27.4197C130.088 28.4034 130.122 29.393 130.224 30.3688C130.564 33.5806 132.146 35.8364 135.315 36.8477C137.685 37.6042 140.13 37.7702 142.58 37.6892C146.157 37.5706 149.432 36.6778 151.68 33.4542C153.033 35.4413 154.854 36.6028 157.061 37.1618C160.561 38.0487 164.069 37.859 167.53 36.9978C169.829 36.425 171.662 35.145 172.555 32.8181C173.112 31.3643 173.242 29.8354 173.244 28.2947C173.25 20.917 173.244 0.455078 173.244 0.455078V0.457055Z" fill="#003594"/>
<path d="M208.997 9.96513C208.997 8.86095 208.912 7.77059 208.728 6.68419C208.353 4.45607 207.196 2.80078 205.169 1.76968C203.298 0.817597 201.28 0.454146 199.217 0.264519C195.231 -0.102884 191.259 -0.0732533 187.318 0.728712C182.898 1.62747 180.741 4.00373 180.62 8.48565C180.498 13.0861 180.563 22.2988 180.547 22.2988C180.547 26.6859 180.553 31.075 180.537 35.4621H180.535V37.3465H185.015V35.6596C184.991 31.8414 184.985 24.3689 184.985 24.3689V23.6637H204.574L204.578 24.4538C204.578 24.4538 204.566 31.794 204.555 35.4641V37.3485H209.009C209.009 37.3485 208.991 18.5339 208.997 9.97106V9.96513ZM204.576 19.8198H184.989V19.1818C184.989 19.1818 185.013 12.6337 185.021 9.36069C185.021 8.71873 185.088 8.08466 185.238 7.45652C185.746 5.32322 187.332 4.44619 189.276 4.04126C192.584 3.35386 195.921 3.44867 199.255 3.83188C199.887 3.90496 200.507 4.09854 201.124 4.27237C203.334 4.89656 204.365 6.45308 204.501 8.66342C204.564 9.66686 204.561 10.6762 204.563 11.6836C204.57 14.1784 204.578 19.17 204.578 19.17V19.8198H204.576Z" fill="#003594"/>
<path d="M238.646 18.3196C235.361 17.4604 231.974 17.1601 228.643 16.5498C227 16.2495 225.339 16.0362 223.703 15.7004C221.497 15.2461 220.416 13.8772 220.391 11.6214C220.381 10.7977 220.381 9.97207 220.412 9.1464C220.513 6.34743 221.574 4.79486 224.284 4.2082C228.446 3.30549 232.653 3.23043 236.795 4.4314C238.702 4.98448 239.636 6.38891 239.865 8.32271C239.993 9.4111 239.968 11.337 239.968 11.337H244.394V10.2308C244.384 9.52961 244.404 8.87184 244.343 8.17457C243.981 4.06005 242.33 2.08477 238.36 0.962807C235.685 0.206274 232.934 0.17467 230.176 0.0996094C227.348 0.172695 224.511 0.235902 221.748 1.02997C218.502 1.96428 216.486 3.94351 216.108 7.41803C215.942 8.95283 215.986 10.4837 215.982 12.0185C215.976 15.4732 217.88 18.0786 221.173 19.1354C223.585 19.9097 226.115 20.0796 228.59 20.524C230.978 20.9527 233.388 21.2549 235.772 21.7013C237.793 22.0786 239.421 23.0465 239.831 25.2548C240.126 26.839 240.041 28.4548 239.784 30.0449C239.506 31.7614 238.5 32.9545 236.835 33.4207C232.531 34.6236 228.185 34.5723 223.863 33.5313C221.811 33.0375 220.73 31.6034 220.491 29.5037C220.428 28.9447 220.405 28.3837 220.397 27.8227H220.401V25.9245V24.8756H215.97V27.3348C215.962 28.682 215.984 30.0271 216.264 31.3585C216.697 33.4246 217.793 35.0029 219.697 35.9885C220.764 36.5416 221.888 36.911 223.061 37.15C226.319 37.8117 229.617 37.8552 232.916 37.6912C234.949 37.5905 236.977 37.3653 238.937 36.7273C241.749 35.8127 243.644 34.0923 244.167 31.0523C244.469 29.2963 244.398 27.5363 244.4 25.7743C244.404 21.9304 242.387 19.2974 238.652 18.3196H238.646Z" fill="#003594"/>
<path d="M122.897 8.14841C122.743 5.55092 121.852 3.32477 119.444 1.96775C118.399 1.37714 117.277 0.984059 116.108 0.733198C113.088 0.0853055 110.022 -0.0351861 106.951 0.0734545C104.572 0.156416 102.192 0.326291 99.9009 1.05517C97.7735 1.73072 95.9741 2.83292 95.0378 4.97808C94.4017 6.43386 94.2753 7.99237 94.2714 9.55086C94.2556 15.7592 94.2635 21.9675 94.2654 28.1758C94.2654 28.4741 94.2674 28.7723 94.2891 29.0686C94.4333 31.1052 94.7435 33.0864 96.2684 34.631C97.6096 35.99 99.3143 36.6577 101.126 37.0251C105.637 37.9416 110.182 37.8863 114.727 37.2917C116.045 37.1199 117.327 36.7683 118.559 36.2468C121.479 35.0123 122.725 32.6716 122.899 29.6533C123.107 26.0603 122.925 22.4613 123 18.8663C122.925 15.293 123.109 11.7177 122.899 8.14841H122.897ZM118.524 27.6958C118.524 28.0158 118.518 28.3378 118.502 28.6578C118.368 31.4074 117.398 32.8829 114.725 33.5269C110.534 34.5362 106.283 34.5461 102.09 33.4143C100.043 32.8612 98.9982 31.3995 98.8027 29.3195C98.7335 28.5906 98.6861 27.8578 98.6842 27.1269C98.6743 21.5843 98.6723 16.0436 98.6842 10.501C98.6842 9.72469 98.7434 8.94445 98.8343 8.17409C99.1088 5.81363 100.616 4.57117 102.795 4.11488C106.672 3.30502 110.577 3.29317 114.453 4.12278C117.127 4.69562 118.419 6.24819 118.482 9.01161C118.557 12.3084 118.526 24.7665 118.524 27.6978V27.6958Z" fill="#003594"/>
<path d="M279.735 8.09545C279.472 5.44462 278.17 3.34884 275.764 2.02935C273.629 0.859987 271.294 0.534065 268.926 0.510362C263.587 0.457029 251.51 0.457031 251.51 0.457031L251.504 37.3415H255.962L255.938 26.7085C255.938 26.7085 264.241 26.7322 268.067 26.7164C269.763 26.7085 271.446 26.5703 273.112 26.1989C276.92 25.3515 279.419 22.7264 279.758 18.8667C280.072 15.2855 280.09 11.6766 279.735 8.09742V8.09545ZM275.231 18.6652C274.879 20.8696 273.465 22.2128 271.344 22.837C270.255 23.157 269.137 23.2301 268.013 23.232C264.211 23.238 255.938 23.2478 255.938 23.2478V4.00464C255.938 4.00464 264.598 4.01649 268.63 4.01649C269.809 4.01649 270.96 4.19229 272.059 4.62883C274.008 5.40709 275.114 6.91225 275.32 8.94284C275.646 12.1784 275.745 15.4356 275.231 18.6632V18.6652Z" fill="#003594"/>
<path d="M67.7112 26.3526C66.8914 25.8331 66.044 25.3689 65.1176 25.0549C64.6139 24.885 64.124 24.9067 63.6243 25.0667C62.8105 25.3294 62.0322 25.6692 61.2658 26.0425C61.1453 26.0642 61.1098 25.9516 61.0347 25.9003C60.3631 24.7586 59.4565 23.848 58.3207 23.1704C58.1133 23.046 58.1054 22.9512 58.2022 22.7497C58.5656 21.9971 58.8994 21.2307 59.1384 20.4268C59.2688 19.9863 59.2728 19.5537 59.1325 19.1132C58.8323 18.1671 58.3523 17.3078 57.8269 16.4742C57.734 16.3261 57.6056 16.2392 57.4338 16.3439C57.2678 16.4466 57.2777 16.5987 57.3686 16.7528C57.4002 16.8061 57.4357 16.8594 57.4673 16.9128C57.9059 17.6357 58.3167 18.3705 58.5893 19.1764C58.7256 19.5774 58.7296 19.9665 58.5992 20.3695C58.3582 21.1142 58.0422 21.8292 57.7123 22.5364C57.6925 22.5779 57.6807 22.6253 57.6234 22.6391C57.5543 22.566 57.5622 22.4672 57.5385 22.3784C57.333 21.6396 56.6713 21.1122 55.9069 21.0845C55.1365 21.0569 54.5321 21.4934 54.2713 22.2677C54.2437 22.3507 54.2239 22.4297 54.1252 22.4633C53.3015 22.7438 52.7326 23.3028 52.3593 24.0771C52.2348 24.1897 52.217 24.3517 52.1756 24.4998C51.9286 25.3729 52.0314 26.2302 52.2961 27.0795C52.3632 27.2929 52.4403 27.5003 52.5153 27.7156C52.4027 27.7511 52.3277 27.6978 52.2486 27.6741C51.338 27.4094 50.4195 27.3462 49.501 27.5971C49.2442 27.6682 49.0388 27.6938 48.8709 27.4588C48.3771 26.7082 47.8852 25.9556 47.3855 25.2089C47.2946 25.0746 47.2828 24.9462 47.3045 24.7902C47.4566 23.6741 47.5811 22.5561 47.5791 21.4282C47.5791 21.2485 47.5791 21.0687 47.5317 20.8929C47.5159 20.8416 47.504 20.7764 47.4428 20.7665C47.3638 20.7527 47.3322 20.8218 47.3144 20.8791C47.2551 21.0569 47.1919 21.2347 47.1524 21.4164C46.9016 22.5719 46.7672 23.7433 46.6171 24.9146C46.5796 25.207 46.6211 25.4638 46.7297 25.7324C47.0102 26.4198 47.2729 27.1151 47.5415 27.8064C47.5672 27.8756 47.6225 27.9427 47.583 28.0356C47.5514 28.0277 47.5218 28.0237 47.4961 28.0119C46.9332 27.7215 46.3742 27.4252 45.8092 27.1388C45.6374 27.0519 45.5406 26.9274 45.4853 26.7378C45.1554 25.6119 44.8216 24.488 44.4186 23.3877C44.3041 23.0717 44.1875 22.7556 44.0216 22.4633C43.9801 22.3922 43.9465 22.2796 43.8458 22.3013C43.7372 22.325 43.7688 22.4435 43.7727 22.5206C43.7865 22.73 43.8043 22.9413 43.8399 23.1487C44.0374 24.3141 44.3416 25.4539 44.6102 26.6035C44.7347 27.1348 44.8848 27.6267 45.3865 27.925C45.3984 27.9329 45.4063 27.9487 45.4161 27.9605C45.4003 28.0277 45.6117 28.1047 45.4043 28.162C44.9065 28 44.4107 27.8321 43.911 27.6761C43.7707 27.6326 43.666 27.5556 43.5712 27.445C42.8957 26.6529 42.2024 25.8786 41.4359 25.1734C41.2799 25.0312 41.1219 24.8909 40.9362 24.7882C40.8829 24.7586 40.8236 24.7131 40.7644 24.7645C40.7051 24.8159 40.7407 24.881 40.7644 24.9383C40.8493 25.1418 40.9718 25.3235 41.0982 25.5013C41.7382 26.4099 42.4591 27.2553 43.1762 28.1008C43.2493 28.1877 43.3421 28.239 43.4428 28.2864C44.4799 28.7822 45.5169 29.278 46.55 29.7778C46.6467 29.8252 46.8324 29.841 46.7297 30.0286C46.6428 30.1867 46.7021 30.4711 46.3465 30.3941C45.5445 30.2202 44.7366 30.08 43.9288 29.9299C40.1086 29.2207 36.2745 28.6045 32.4208 28.1106C28.1581 27.5655 23.8777 27.3067 19.5794 27.3205C17.4995 27.3264 15.4215 27.3798 13.3573 27.6741C12.9939 27.7255 12.6304 27.7926 12.2867 27.923C12.0378 28.0178 11.9845 28.162 12.0911 28.403C12.1682 28.5768 12.2887 28.721 12.4171 28.8593C12.7805 29.2504 13.1973 29.5802 13.624 29.8983C15.0225 30.9333 16.5079 31.8281 18.0269 32.6696C20.3557 33.9634 22.7122 35.1703 25.3809 35.6424C27.0618 35.9387 28.7329 36.2567 30.4494 36.2093C31.2178 36.1876 31.9783 36.1086 32.6854 35.7609C33.3136 35.4547 33.8844 35.0557 34.4751 34.6903C35.3383 34.159 36.2508 33.758 37.2721 33.6869C38.9333 33.5703 40.5886 33.3985 42.2458 33.2365C43.591 33.1061 44.9361 32.9639 46.2813 32.8276C46.3939 32.8158 46.4946 32.798 46.5282 32.956C46.6685 33.6217 46.947 34.2301 47.2887 34.8147C47.2887 34.8878 47.3322 34.9431 47.3677 35.0004C47.4467 35.1288 47.3302 35.0873 47.2788 35.1031C46.1865 34.4829 45.0586 34.5066 43.911 34.9234C43.0517 35.2375 42.2754 35.7036 41.5367 36.231C39.9328 37.3747 38.5224 38.7377 37.1022 40.0927C35.4291 41.6887 33.8726 43.3796 32.5571 45.2897C29.8055 49.2876 27.5892 53.574 25.608 57.9907L25.1557 58.9942L25.9813 58.6307C28.8455 57.3646 31.6445 55.974 34.3664 54.4234C36.6498 53.1217 38.8859 51.7409 40.9085 50.0521C43.0912 48.2289 45.0171 46.143 46.8719 43.9919C47.7094 43.0181 48.4699 41.985 49.0131 40.8117C49.6413 39.4507 49.821 38.0898 48.9756 36.7406L49.0684 36.6932C49.7104 37.1041 50.38 37.4517 51.1306 37.6137C51.3341 37.6572 51.3637 37.7441 51.344 37.9357C51.0655 40.5944 50.7869 43.2532 50.5578 45.9158C50.4985 46.6072 50.4827 47.3045 50.2773 47.978C50.0087 48.8669 49.5405 49.6531 49.0171 50.4037C48.2527 51.498 47.9307 52.7009 47.9485 54.0263C47.9722 55.7172 48.227 57.3725 48.5924 59.0159C48.8136 60.0154 49.021 61.0188 49.4299 61.965C50.6072 64.685 52.0531 67.2568 53.6985 69.718C54.1429 70.3817 54.6111 71.0256 55.1721 71.5985C55.3518 71.7822 55.5395 71.9639 55.7824 72.0666C56.0116 72.1654 56.1577 72.1041 56.2466 71.8711C56.3019 71.7249 56.3454 71.5748 56.379 71.4227C56.5804 70.5279 56.6614 69.6153 56.7167 68.7027C57.0051 64.0726 56.8234 59.4524 56.4066 54.8382C56.1479 51.98 55.7232 49.1434 55.2827 46.3089C54.8402 43.4665 54.3365 40.6359 53.7815 37.8132C53.7143 37.4735 53.975 37.5268 54.1271 37.4399C54.3247 37.3273 54.3444 37.509 54.3978 37.6157C54.8936 38.6428 55.3854 39.672 55.8792 40.7011C55.9266 40.7999 55.9701 40.8986 56.057 40.9717C56.9459 41.7243 57.8288 42.4848 58.7928 43.1425C58.9152 43.2255 59.0436 43.3006 59.176 43.3677C59.2471 43.4033 59.3399 43.4783 59.409 43.3895C59.4723 43.3085 59.3992 43.2235 59.3498 43.1583C59.2174 42.9845 59.0831 42.8107 58.935 42.6507C58.3898 42.0581 57.813 41.4912 57.1829 40.9915C56.7246 40.63 56.4145 40.2092 56.3019 39.6404C56.2921 39.4093 56.1696 39.2097 56.1202 38.9905C56.0846 38.8344 55.9681 38.6962 56.0155 38.5223C56.1992 38.7238 56.3888 38.9214 56.5627 39.1307C56.6772 39.271 56.8116 39.35 56.9874 39.3954C58.0619 39.6739 59.1365 39.9485 60.2248 40.1737C60.7147 40.2744 61.2026 40.387 61.7063 40.3969C61.7735 40.3969 61.8643 40.4127 61.888 40.3297C61.9117 40.2468 61.8268 40.2112 61.7695 40.1757C61.5779 40.0532 61.3666 39.9683 61.1552 39.8853C59.9305 39.4093 58.6683 39.0438 57.4101 38.6705C57.2481 38.6231 57.1355 38.5382 57.0604 38.39C56.7641 37.8132 56.4639 37.2384 56.1656 36.6616C56.1538 36.6379 56.1538 36.6063 56.1459 36.5747C56.2506 36.551 56.3237 36.6083 56.3987 36.6379C57.1572 36.9303 57.9138 37.2246 58.6703 37.5229C58.7908 37.5703 58.9073 37.592 59.0357 37.5762C60.2683 37.4261 61.5048 37.2838 62.7216 37.0271C62.9211 36.9856 63.1186 36.9342 63.3043 36.8513C63.3596 36.8256 63.4307 36.7999 63.4149 36.7209C63.4031 36.6616 63.3399 36.6478 63.2865 36.634C63.0633 36.5826 62.8362 36.5846 62.609 36.5885C61.5206 36.6004 60.4401 36.7169 59.3636 36.8631C59.2253 36.8809 59.1108 36.873 58.9883 36.792C58.1923 36.2666 57.3943 35.7451 56.5923 35.2296C56.4501 35.1387 56.4106 35.0577 56.4659 34.8898C56.7227 34.1076 56.7365 33.3096 56.5962 32.5037C56.5409 32.1916 56.4323 31.8913 56.3572 31.5832C56.4639 31.5476 56.5271 31.6069 56.5962 31.6345C57.3824 31.9526 58.1923 32.1382 59.0456 32.0533C60.1913 31.9387 61.0841 31.4173 61.5858 30.3506C61.7142 30.08 61.8545 29.9141 62.1448 29.8015C62.8006 29.5427 63.166 28.8612 63.0969 28.1541C63.0238 27.4193 62.4707 26.7911 61.7458 26.6134C61.6767 26.5956 61.5878 26.6232 61.5384 26.5225C61.5878 26.4949 61.6312 26.4632 61.6787 26.4415C62.287 26.1551 62.9112 25.9062 63.5354 25.6554C64.1734 25.3986 64.7779 25.448 65.3961 25.7166C66.1013 26.0228 66.7729 26.3882 67.4228 26.7951C67.5749 26.8899 67.725 26.9116 67.8336 26.7477C67.9403 26.5877 67.8771 26.4474 67.723 26.3507L67.7112 26.3526Z" fill="#003594"/>
<path d="M116.454 72.4294H102.656L100.115 79.4641H95.7578L107.195 48.0119H111.96L123.352 79.4641H118.995L116.454 72.4294ZM115.274 69.0708L109.555 53.0951L103.836 69.0708H115.274Z" fill="#003594"/>
<path d="M132.467 76.1056H143.541V79.4641H128.337V47.8303H132.467V76.1056Z" fill="#003594"/>
<path d="M171.891 56.9982C171.013 55.1526 169.743 53.7305 168.078 52.732C166.414 51.7033 164.478 51.1889 162.269 51.1889C160.06 51.1889 158.063 51.7033 156.278 52.732C154.523 53.7305 153.131 55.1828 152.103 57.089C151.104 58.965 150.605 61.1435 150.605 63.6245C150.605 66.1056 151.104 68.2841 152.103 70.1601C153.131 72.036 154.523 73.4883 156.278 74.5171C158.063 75.5156 160.06 76.0148 162.269 76.0148C165.355 76.0148 167.897 75.092 169.894 73.2463C171.891 71.4006 173.056 68.9044 173.389 65.7577H160.771V62.3991H177.791V65.5761C177.549 68.1782 176.732 70.5685 175.34 72.7471C173.948 74.8953 172.118 76.6048 169.848 77.8756C167.579 79.1162 165.053 79.7364 162.269 79.7364C159.334 79.7364 156.656 79.0557 154.236 77.6941C151.815 76.3023 149.894 74.3809 148.472 71.9301C147.08 69.4793 146.384 66.7108 146.384 63.6245C146.384 60.5383 147.08 57.7698 148.472 55.319C149.894 52.8379 151.815 50.9166 154.236 49.555C156.656 48.1632 159.334 47.4673 162.269 47.4673C165.628 47.4673 168.593 48.2993 171.165 49.9635C173.767 51.6276 175.658 53.9725 176.838 56.9982H171.891Z" fill="#003594"/>
<path d="M187.382 47.8303V79.4641H183.252V47.8303H187.382Z" fill="#003594"/>
<path d="M198.551 51.1889V61.7637H210.079V65.1677H198.551V76.0602H211.44V79.4641H194.421V47.785H211.44V51.1889H198.551Z" fill="#003594"/>
<path d="M234.346 79.4641L226.812 66.5292H221.82V79.4641H217.69V47.8303H227.902C230.292 47.8303 232.304 48.2388 233.938 49.0558C235.602 49.8727 236.843 50.9771 237.66 52.3689C238.476 53.7607 238.885 55.3492 238.885 57.1344C238.885 59.3129 238.25 61.2342 236.979 62.8984C235.738 64.5625 233.862 65.6669 231.351 66.2115L239.293 79.4641H234.346ZM221.82 63.2161H227.902C230.141 63.2161 231.82 62.6714 232.939 61.5822C234.059 60.4627 234.619 58.9801 234.619 57.1344C234.619 55.2585 234.059 53.8061 232.939 52.7774C231.85 51.7486 230.171 51.2343 227.902 51.2343H221.82V63.2161Z" fill="#003594"/>
<path d="M255.333 79.7818C253.245 79.7818 251.369 79.4187 249.705 78.6926C248.071 77.9361 246.785 76.9074 245.847 75.6063C244.909 74.275 244.425 72.7471 244.395 71.0224H248.797C248.948 72.505 249.554 73.7607 250.613 74.7894C251.702 75.7879 253.275 76.2871 255.333 76.2871C257.299 76.2871 258.842 75.803 259.962 74.8348C261.112 73.8363 261.687 72.5655 261.687 71.0224C261.687 69.8121 261.354 68.8288 260.688 68.0723C260.022 67.3159 259.19 66.741 258.192 66.3477C257.193 65.9543 255.847 65.5307 254.153 65.0769C252.065 64.5323 250.386 63.9876 249.115 63.443C247.874 62.8984 246.8 62.0512 245.892 60.9014C245.015 59.7214 244.576 58.148 244.576 56.1813C244.576 54.4566 245.015 52.9287 245.892 51.5974C246.77 50.266 247.995 49.2373 249.569 48.5111C251.172 47.785 253.003 47.4219 255.06 47.4219C258.025 47.4219 260.446 48.1632 262.322 49.6458C264.228 51.1284 265.302 53.0951 265.544 55.5459H261.006C260.855 54.3356 260.219 53.2766 259.1 52.3689C257.98 51.4309 256.498 50.962 254.652 50.962C252.927 50.962 251.52 51.4158 250.431 52.3235C249.342 53.201 248.797 54.4415 248.797 56.0451C248.797 57.1949 249.115 58.1329 249.75 58.8591C250.416 59.5852 251.218 60.145 252.156 60.5383C253.124 60.9014 254.47 61.325 256.195 61.8091C258.283 62.384 259.962 62.9589 261.233 63.5338C262.504 64.0784 263.593 64.9407 264.501 66.1208C265.408 67.2705 265.862 68.8439 265.862 70.8409C265.862 72.384 265.454 73.8363 264.637 75.1979C263.82 76.5594 262.609 77.6638 261.006 78.511C259.402 79.3582 257.511 79.7818 255.333 79.7818Z" fill="#003594"/>
</svg>
